<svg xmlns="http://www.w3.org/2000/svg" viewBox="0 0 622 178"><path d="M581.6 101.1c3.2-2.8 8.9-6.8 17.3-6.8 12.9 0 20.4 8.9 20.4 22v34.4h-15.8v-32.9c0-6.8-3-10.3-9.3-10.3-5 0-9 2.7-11.4 4.4v38.8H567V96h12.8l1.8 5.1zM555 128h-36.1c.7 7.1 5.5 11.4 13.2 11.4 6.3 0 11.9-1.5 17.6-3.5l3.8 11.5c-5.8 2.7-13.7 4.7-22.4 4.7-19.1 0-28.3-13-28.3-29.1 0-15.4 9.5-28.9 27.5-28.9 17.7 0 25.6 10.7 25.6 23.6-.1 3.7-.5 8.1-.9 10.3zm-24.7-22.1c-7.3 0-11 5.6-11.4 11.9h22.4v-1.3c0-5.9-2.7-10.6-11-10.6zM478.6 100.8l2-4.8h12.5v50.8c0 18.4-10.5 27.7-28.3 27.7-9 0-16.1-2.4-21.8-5.5l4.7-11.7c4.8 2.6 10.3 4 17.1 4 8.7 0 12.5-3 12.5-11.7v-3.5c-3.2 2.3-7.8 5.2-15.3 5.2-16 0-24-12.6-24-28.3 0-15.8 8.1-28.6 24-28.6 4.2 0 7.4.9 10.1 2.3 1.3.7 2.6 1.3 3.8 2.1.7.6 1.6 1.4 2.7 2zm-1.6 9.8c-3-1.7-6.8-3.2-10.6-3.2-8.7 0-12.5 6-12.5 15.6 0 9.5 3.8 15.2 12.5 15.2 3.8 0 7.5-1.3 10.6-2.8v-24.8zM413.4 145.7c-3.8 3-10.9 6.6-17.5 6.6-12.4 0-18.7-7.4-18.7-17.3 0-12.2 7.9-18 27.1-18h7v-2.1c0-6.3-5.6-7.4-8.9-7.4-5.9 0-12.6 1.6-18.3 4l-3.9-12.2c6-2.7 14.4-5 22.8-5 15.8 0 23.6 8.1 23.6 22.2v22c0 1.6 0 1.6 1.5 1.6h4.3v11c-2.7.5-5 .8-8.2.8-5.7 0-8.8-2.2-10.8-6.2zm-2.2-18.4h-5.4c-10.1 0-13.4 2.6-13.4 6.2 0 4.3 2.4 6.2 6.8 6.2 3.9 0 9-1.3 12.1-3.5v-8.9h-.1zM347.7 132.8l9.9-36.8h15.8v1.5l-16.3 53.1h-17l-12.3-38.4-12.2 38.4h-17.2l-16.2-53.1V96H298l9.8 36.8L319.4 96h16.9zM254.4 152.3c-9.4 0-16.1-1.9-22.8-5.4l4.8-11.5c5.6 2.8 11.7 4.7 17.6 4.7 5.9 0 8.2-1.7 8.2-5 0-3-2.3-4.2-7.1-5.4L248 128c-7.7-1.9-15-6.2-15-16.2 0-10.9 8.7-17.7 22.8-17.7 8.3 0 14.1 1.3 20.7 4l-4.4 11.4c-5.1-1.9-10.6-3.4-15.8-3.4-5.8 0-7.9 1.6-7.9 4.6 0 2.8 2.1 4 6.7 5.1l6.8 1.7c8.7 2.1 15.7 6.7 15.7 16.4 0 11.8-9.2 18.4-23.2 18.4zM191.2 119.8L210 96h17v1.6l-20.5 24.9 21.4 26.5v1.6h-17.7l-19-24.5v24.5h-15.9v-79h15.9zM157.3 151.6c-10.6 0-14.4-5.2-14.4-16.1V71.6h16v66.6c0 1.6 0 1.6 1.5 1.6h6.3v11c-2.7.4-6 .8-9.4.8zM104.4 152.3c-18.8 0-29-13.2-29-29s10.1-29 29-29c19.2 0 29.1 13.2 29.1 29 .1 15.8-10 29-29.1 29zm0-44.9c-7.5 0-12.8 5.1-12.8 15.8s5.2 15.8 12.8 15.8c7.8 0 12.8-5.1 12.8-15.8s-5.1-15.8-12.8-15.8zM43.1 133.2l19.2-59.4h17.5v1.5l-27.1 75.3H33.1L6 75.3v-1.5h17.6z"/></svg>